<?xml version="1.0" encoding="UTF-8"?>
<svg width="1420px" height="604px" viewBox="0 0 1420 604" version="1.1" xmlns="http://www.w3.org/2000/svg" xmlns:xlink="http://www.w3.org/1999/xlink">
    <!-- Generator: Sketch 47 (45396) - http://www.bohemiancoding.com/sketch -->
    <title>fondo_tiles</title>
    <desc>Created with Sketch.</desc>
    <defs>
        <linearGradient x1="50%" y1="0%" x2="50%" y2="100%" id="linearGradient-1">
            <stop stop-color="#FFFFFF" stop-opacity="0.165279665" offset="0%"></stop>
            <stop stop-color="#FFFFFF" stop-opacity="0.550979393" offset="100%"></stop>
        </linearGradient>
    </defs>
    <g id="Welcome" stroke="none" stroke-width="1" fill="none" fill-rule="evenodd" opacity="0.11939538">
        <g id="Desktop-HD" transform="translate(-20.000000, 0.000000)" fill="url(#linearGradient-1)">
            <g id="fondo_tiles" transform="translate(743.000000, 102.500000) scale(-1, 1) translate(-743.000000, -102.500000) translate(20.000000, -399.000000)">
                <g id="Shape">
                    <path d="M1439.65156,1003 C1441.75346,1003 1443.8524,1003 1445.94839,1003 L1446,0 L0,0 L0,454.506943 C1.99289413,454.506943 3.98861086,454.506943 5.9871502,454.506943 C206.190012,454.828134 364.797879,477.318774 486.043047,521.978862 C608.125857,566.960142 687.059894,636.495423 722.84516,730.584705 C756.325029,826.806127 834.674115,896.272629 957.892419,938.984211 C1081.07631,981.661404 1241.66269,1003 1439.65156,1003 Z" fill-rule="nonzero"></path>
                </g>
            </g>
        </g>
    </g>
</svg>