<?xml version="1.0" encoding="UTF-8"?>
<svg width="257px" height="55px" viewBox="0 0 257 55" version="1.1" xmlns="http://www.w3.org/2000/svg" xmlns:xlink="http://www.w3.org/1999/xlink">
    <!-- Generator: Sketch 47 (45396) - http://www.bohemiancoding.com/sketch -->
    <title>Page 1</title>
    <desc>Created with Sketch.</desc>
    <defs>
        <polygon id="path-1" points="0.106918519 0.0993371758 41.900937 0.0993371758 41.900937 44.892286 0.106918519 44.892286"></polygon>
        <polygon id="path-3" points="0 55 257 55 257 0 0 0"></polygon>
    </defs>
    <g id="Welcome" stroke="none" stroke-width="1" fill="none" fill-rule="evenodd">
        <g id="Desktop-HD" transform="translate(-266.000000, -50.000000)">
            <g id="Page-1" transform="translate(266.000000, 50.000000)">
                <path d="M19.8388796,32.7964509 C15.3747977,38.814446 10.9585772,42.5976627 7.06688665,43.7371982 C6.67569419,43.8517166 6.29033848,43.9392744 5.90965218,44 C2.20966671,39.3784365 0,33.5347867 0,27.1799122 C0,19.6880699 3.07130183,12.9060622 8.03513987,8 C9.05968539,8.09153772 10.3335253,8.30080347 11.7168368,8.74655236 C16.3503144,10.2379881 19.8805151,13.5542725 22.2091219,18.6028409 C22.5477836,19.3366832 22.9302858,20.19172 23.3357459,21.0970832 C23.8336861,22.2090161 24.3896049,23.4504884 25,24.7730993 C24.1172228,26.3650596 22.2874642,29.4955725 19.8388796,32.7964509 Z" id="Fill-1" fill="#FFFFFF"></path>
                <path d="M33.709843,39.5545571 C31.6040822,36.5926814 29.7193848,33.2414325 28.0820679,30 C27.0678078,31.6758884 25.7620861,33.7004968 24.2230635,35.8024519 C21.9767695,38.8715042 19.6952107,41.470801 17.4414163,43.5274831 C14.9383992,45.8114536 12.4413035,47.4468209 10,48.4041508 C14.8408945,52.5185711 21.1054112,55 27.9479824,55 C34.3755334,55 40.2927963,52.810139 45,49.1337965 C43.7173057,48.7180252 42.4459278,48.0922564 41.1911296,47.256886 C38.6295571,45.5519595 36.1822006,43.0325173 33.709843,39.5545571" id="Fill-3" fill="#FFFFFF"></path>
                <g id="Group-7" transform="translate(13.000000, 0.000000)">
                    <mask id="mask-2" fill="white">
                        <use xlink:href="#path-1"></use>
                    </mask>
                    <g id="Clip-6"></g>
                    <path d="M7.45497407,8.26153314 C10.0329185,10.4634207 12.1443259,13.3426427 13.7307333,16.8186657 C14.0800852,17.5845735 14.467937,18.4603228 14.8786037,19.3871671 C16.9941593,24.1630029 20.1912148,31.3808991 24.1196407,36.8916484 C26.1791963,39.7817637 28.2366778,41.9190692 30.2347889,43.2454669 C32.0923815,44.4783631 33.8781593,45.0131758 35.6704185,44.869487 C39.562937,40.1403372 41.900937,34.0820663 41.900937,27.4777003 C41.900937,12.3571816 29.6479556,0.0992853026 14.5337889,0.0992853026 C9.23906667,0.0992853026 4.29551111,1.60399712 0.106918519,4.20855043 C0.191566667,4.23513545 0.276603704,4.26159078 0.361640741,4.28960231 C2.98015926,5.14136023 5.36651111,6.47774352 7.45497407,8.26153314" id="Fill-5" fill="#FFFFFF" mask="url(#mask-2)"></path>
                </g>
                <polygon id="Fill-8" fill="#FFFFFF" points="81 51 79.4438161 51 79.4438161 40.6723725 66.5411028 40.6723725 66.5411028 51 65 51 65 30 66.5411028 30 66.5411028 39.322068 79.4438161 39.322068 79.4438161 30 81 30"></polygon>
                <path d="M102,30 L102,44.0432626 C102,46.5371436 101.286759,48.4868691 99.8606686,49.8920421 C98.4344476,51.2974797 96.446853,52 93.8973622,52 C91.4161661,52 89.4798903,51.2949659 88.087882,49.8847655 C86.6958736,48.4744328 86,46.5073758 86,43.9838592 L86,30 L87.5091408,30 L87.5091408,44.0432626 C87.5091408,46.1315076 88.0804388,47.7570947 89.2232959,48.9197592 C90.366153,50.0826884 91.9827631,50.6640206 94.0732567,50.6640206 C96.1146513,50.6640206 97.6970488,50.0924787 98.8203186,48.9493947 C99.9435884,47.8064431 100.505484,46.2206787 100.505484,44.1917047 L100.505484,30 L102,30 Z" id="Fill-10" fill="#FFFFFF"></path>
                <path d="M109.484306,40.6438251 L109.484306,49.7074304 L114.490661,49.7074304 C118.429572,49.7074304 120.399222,48.1273386 120.399222,44.967283 C120.399222,42.0850204 118.322957,40.6438251 114.170558,40.6438251 L109.484306,40.6438251 Z M109.484306,39.3508714 L114.170558,39.3508714 C116.169001,39.3508714 117.62179,39.0231525 118.529183,38.3670745 C119.436187,37.7112525 119.889883,36.6841865 119.889883,35.2858763 C119.889883,33.8880781 119.377951,32.8729175 118.354475,32.2407783 C117.330739,31.6087672 115.805188,31.2928257 113.777562,31.2928257 L109.484306,31.2928257 L109.484306,39.3508714 Z M108,30 L113.835798,30 C116.464851,30 118.39572,30.4406284 119.627886,31.3215011 C120.859922,32.2027578 121.476135,33.533604 121.476135,35.3146797 C121.476135,36.5309523 121.1,37.5435526 120.348379,38.3527368 C119.596239,39.162049 118.497536,39.6812787 117.05201,39.911194 L117.05201,39.9973483 C118.749676,40.2464659 119.998962,40.7754247 120.799481,41.5846089 C121.599741,42.3939211 122,43.5214791 122,44.967283 C122,46.9017209 121.349935,48.3907939 120.049935,49.4343739 C118.749676,50.47821 116.906485,51 114.519715,51 L108,51 L108,30 Z" id="Fill-12" fill="#FFFFFF"></path>
                <polygon id="Fill-14" fill="#FFFFFF" points="69.3675462 25 65 25 65 4 77 4 77 7.64843364 69.3675462 7.64843364 69.3675462 13.0636053 76.4699933 13.0636053 76.4699933 16.6977012 69.3675462 16.6977012"></polygon>
                <path d="M99,4 L99,18.0432626 C99,19.6464907 98.6374493,21.0519283 97.9124816,22.2591784 C97.1873802,23.4666931 96.1398333,24.392009 94.7699746,25.035126 C93.3998485,25.6785076 91.7798672,26 89.9100307,26 C87.0901029,26 84.8999599,25.2853079 83.3400027,23.8549977 C81.7800455,22.4250843 81,20.4680823 81,17.9838592 L81,4 L85.6349539,4 L85.6349539,17.286234 C85.6349539,18.9587881 85.974912,20.1860157 86.6550956,20.9676523 C87.3350118,21.7495535 88.4599617,22.1403718 90.0300789,22.1403718 C91.5499309,22.1403718 92.6525556,21.7470398 93.3375518,20.9601111 C94.0224143,20.1734471 94.3650461,18.9389429 94.3650461,17.2564662 L94.3650461,4 L99,4 Z" id="Fill-16" fill="#FFFFFF"></path>
                <path d="M123,25 L117.228154,25 L107.911392,9.11356778 L107.779528,9.11356778 C107.964921,11.9194053 108.057748,13.9206671 108.057748,15.1177374 L108.057748,25 L104,25 L104,4 L109.727717,4 L119.029987,19.7284614 L119.132606,19.7284614 C118.98612,16.9993051 118.912876,15.0698597 118.912876,13.9399974 L118.912876,4 L123,4 L123,25 Z" id="Fill-18" fill="#FFFFFF"></path>
                <path d="M136.852859,7.77637836 C135.17703,7.77637836 133.879708,8.41808091 132.960511,9.70122508 C132.041313,10.9844997 131.581651,12.7727612 131.581651,15.0658792 C131.581651,19.8376205 133.338763,22.2236216 136.852859,22.2236216 C138.32721,22.2236216 140.113252,21.848045 142.210087,21.0965003 L142.210087,24.9022308 C140.486512,25.6342074 138.56197,26 136.436334,26 C133.381772,26 131.045441,25.0560359 129.427342,23.1677162 C127.809114,21.279527 127,18.5692176 127,15.0365271 C127,12.8117669 127.397325,10.8625253 128.192102,9.18880231 C128.98688,7.51534019 130.128676,6.23206556 131.617748,5.33910888 C133.106435,4.44641311 134.851515,4 136.852859,4 C138.892349,4 140.941182,4.50263873 143,5.50752482 L141.563794,9.19623819 C140.778489,8.81557382 139.988576,8.48409056 139.193926,8.20087523 C138.399021,7.9179208 137.618708,7.77637836 136.852859,7.77637836" id="Fill-20" fill="#FFFFFF"></path>
                <polygon id="Fill-22" fill="#FFFFFF" points="155.246365 25 150.753635 25 150.753635 7.70591247 145 7.70591247 145 4 161 4 161 7.70591247 155.246365 7.70591247"></polygon>
                <mask id="mask-4" fill="white">
                    <use xlink:href="#path-3"></use>
                </mask>
                <g id="Clip-25"></g>
                <polygon id="Fill-24" fill="#FFFFFF" mask="url(#mask-4)" points="165 25 169 25 169 4 165 4"></polygon>
                <path d="M178.669569,14.9926392 C178.669569,17.3804118 179.115052,19.1784067 180.00589,20.3867541 C180.8966,21.5952318 182.227799,22.1993403 184,22.1993403 C187.553493,22.1993403 189.330431,19.7972369 189.330431,14.9926392 C189.330431,10.1786613 187.563224,7.77134668 184.028811,7.77134668 C182.256611,7.77134668 180.920417,8.37819112 180.020104,9.59135888 C179.11979,10.8046569 178.669569,12.6051271 178.669569,14.9926392 M194,14.9926392 C194,18.5302635 193.137845,21.2490777 191.413663,23.1496029 C189.689609,25.0498676 187.218388,26 184,26 C180.781612,26 178.310391,25.0498676 176.586209,23.1496029 C174.862155,21.2490777 174,18.5206227 174,14.9633262 C174,11.4065507 174.864332,8.69008154 176.593508,6.81404893 C178.3223,4.93788603 180.800691,4 184.028811,4 C187.256675,4 189.725591,4.94531199 191.435175,6.83593597 C193.145144,8.72655996 194,11.4455045 194,14.9926392" id="Fill-26" fill="#FFFFFF" mask="url(#mask-4)"></path>
                <path d="M217,25 L211.228154,25 L201.911392,9.11356778 L201.779528,9.11356778 C201.964921,11.9194053 202.057748,13.9206671 202.057748,15.1177374 L202.057748,25 L198,25 L198,4 L203.727717,4 L213.029987,19.7284614 L213.132606,19.7284614 C212.98612,16.9993051 212.912876,15.0698597 212.912876,13.9399974 L212.912876,4 L217,4 L217,25 Z" id="Fill-27" fill="#FFFFFF" mask="url(#mask-4)"></path>
                <path d="M233.360867,16.3024096 C231.904406,11.7916366 231.084386,9.24066126 230.901202,8.64922868 C230.717754,8.05805108 230.586625,7.59066763 230.507417,7.24733331 C230.180389,8.4681909 229.244207,11.4866771 227.698472,16.3024096 L233.360867,16.3024096 Z M236.036034,25 L234.46063,20.0218435 L226.539238,20.0218435 L224.963834,25 L220,25 L227.66867,4 L233.301395,4 L241,25 L236.036034,25 Z" id="Fill-28" fill="#FFFFFF" mask="url(#mask-4)"></path>
                <polygon id="Fill-29" fill="#FFFFFF" mask="url(#mask-4)" points="244 25 244 4 248.46292 4 248.46292 21.3227629 257 21.3227629 257 25"></polygon>
            </g>
        </g>
    </g>
</svg>