<?xml version="1.0" encoding="UTF-8"?>
<svg width="190px" height="165px" viewBox="0 0 190 165" version="1.1" xmlns="http://www.w3.org/2000/svg" xmlns:xlink="http://www.w3.org/1999/xlink">
    <!-- Generator: Sketch 47 (45396) - http://www.bohemiancoding.com/sketch -->
    <title>Monad</title>
    <desc>Created with Sketch.</desc>
    <defs></defs>
    <g id="Welcome" stroke="none" stroke-width="1" fill="none" fill-rule="evenodd">
        <g id="Desktop-HD" transform="translate(-952.000000, -405.000000)">
            <g id="Monad" transform="translate(952.000000, 405.000000)">
                <path d="M26.6360643,117.053967 C26.6360643,117.053967 22.1450076,136.756661 21.6733702,146.700817 C21.6733702,146.700817 27.2127221,156.420684 25.7080653,158.8492 C24.2014991,161.275783 18.8320895,154.922196 18.8320895,154.922196 C18.8320895,154.922196 10.6462221,165.962665 7.39058784,164.932093 C4.13304415,163.90152 10.3693499,155.631803 10.3693499,155.631803 C10.3693499,155.631803 0.46496594,155.144552 0.0105137727,152.46081 C-0.445847858,149.779 14.1061688,146.432056 14.1061688,146.432056 C14.1061688,146.432056 19.0688629,122.469791 23.7852362,113.28938 C28.5016095,104.110902 26.6360643,117.053967 26.6360643,117.053967" id="Fill-1" fill="#AEB55C"></path>
                <path d="M145,84.8599563 C145,84.8599563 154.599132,92.8059183 161.483339,88.8319614 C168.367545,84.8599563 167.339905,76.3733331 167.339905,76.3733331 C167.339905,76.3733331 159.923284,69.0012136 159.886093,65.7318728 C159.852817,62.462532 169.324718,65.7318728 169.324718,65.7318728 C169.324718,65.7318728 172.712992,50 175.249794,50 C177.784638,50 178.690918,65.7318728 178.690918,65.7318728 C178.690918,65.7318728 188.654128,63.5828911 189.920572,65.7318728 C191.188973,67.8808544 176.880315,76.7031949 174.525553,76.8983795 C174.525553,76.8983795 172.17079,91.0004614 164.200222,95.1539881 C156.229654,99.3075148 145,95.1539881 145,95.1539881 L145,84.8599563 Z" id="Fill-3" fill="#AEB55C"></path>
                <path d="M171.000008,69.5094812 C170.998158,69.5450372 171.329267,68.969866 172.115421,69.001239 C172.300398,69.0242458 172.53347,69.0409781 172.729546,69.1748361 C172.94042,69.2877788 173.156844,69.430003 173.332572,69.6454308 C173.487953,69.854584 173.658132,70.0951101 173.767269,70.3460939 C173.874556,70.61381 173.930049,70.8794345 173.987392,71.1534252 C173.99849,71.4253243 174.011439,71.6972235 173.981842,71.9523904 C173.974443,72.2117403 173.881955,72.4522665 173.798715,72.6760604 C173.719175,72.8977627 173.602639,73.0985498 173.465756,73.2658723 C173.338121,73.4394695 173.203088,73.5837852 173.040308,73.6883618 C172.755443,73.9163387 172.429883,73.9958169 172.211609,74 C171.971139,73.9916339 171.856453,73.9623524 171.856453,73.9623524 C171.856453,73.9623524 171.852753,73.8054875 171.808359,73.5733275 C171.780612,73.3558082 171.71402,73.0818175 171.649278,72.8329253 C171.610433,72.7074333 171.564189,72.5777584 171.540142,72.4648157 C171.497597,72.3435068 171.455052,72.2305641 171.440254,72.1259875 C171.408808,72.0172278 171.371812,71.9147428 171.366263,71.8206239 C171.368113,71.7244134 171.340366,71.6386606 171.331117,71.5508163 C171.327418,71.471338 171.336666,71.3834937 171.325568,71.3186562 C171.353314,71.2287204 171.353314,71.172249 171.368113,71.0885877 C171.360714,71.0362994 171.419906,70.9066245 171.410657,70.8313293 C171.416207,70.7372104 171.419906,70.6179931 171.401409,70.5050503 C171.332967,70.0449133 171.000008,69.5094812 171.000008,69.5094812" id="Fill-5" fill="#6D701E"></path>
                <path d="M110.524937,163 L66.4750634,163 C43.9013182,163 25.1876234,145.521574 23.6641231,123.010894 L21.1572197,86.0167634 C18.5186798,47.0550037 49.4281206,14 88.4990321,14 L88.5009679,14 C127.571879,14 158.48132,47.0550037 155.84278,86.0167634 L153.337813,123.010894 C151.812377,145.521574 133.098682,163 110.524937,163" id="Fill-17" fill="#B3BC5D"></path>
                <path d="M68.2045562,146 C51.0554846,146 36.7128365,132.237272 35.5561087,114.6696 L33.1339673,77.9226138 C32.0645763,61.721166 37.4251168,46.2637016 48.2238305,34.3986146 C59.0244851,22.5335276 73.6815458,16 89.499216,16 C105.316886,16 119.975888,22.5335276 130.774601,34.3986146 C141.577197,46.2637016 146.933856,61.721166 145.866406,77.9226138 L143.446205,114.6696 C142.285596,132.237272 127.944888,146 110.793876,146 L68.2045562,146 Z" id="Fill-19" fill="#C3D34E"></path>
                <path d="M142,98.5009778 C142,108.165726 134.16377,116 124.499022,116 C114.834274,116 107,108.165726 107,98.5009778 C107,88.8362295 114.834274,81 124.499022,81 C134.16377,81 142,88.8362295 142,98.5009778" id="Fill-21" fill="#4E4450"></path>
                <path d="M79,98.5009778 C79,108.165726 71.1637705,116 61.5009778,116 C51.8342739,116 44,108.165726 44,98.5009778 C44,88.8362295 51.8342739,81 61.5009778,81 C71.1637705,81 79,88.8362295 79,98.5009778" id="Fill-23" fill="#4E4450"></path>
                <path d="M74,96.5 C74,103.402814 68.4032418,109 61.5009557,109 C54.5967582,109 49,103.402814 49,96.5 C49,89.5971861 54.5967582,84 61.5009557,84 C68.4032418,84 74,89.5971861 74,96.5" id="Fill-25" fill="#19161A"></path>
                <path d="M136,96.5 C136,103.402814 130.403242,109 123.499044,109 C116.596758,109 111,103.402814 111,96.5 C111,89.5971861 116.596758,84 123.499044,84 C130.403242,84 136,89.5971861 136,96.5" id="Fill-27" fill="#19161A"></path>
                <path d="M60,93.0009558 C60,95.7614223 57.7614223,98 54.9990442,98 C52.236666,98 50,95.7614223 50,93.0009558 C50,90.2385777 52.236666,88 54.9990442,88 C57.7614223,88 60,90.2385777 60,93.0009558" id="Fill-29" fill="#EEEDEB"></path>
                <path d="M122,93.0009558 C122,95.7614223 119.761422,98 117.000956,98 C114.236666,98 112,95.7614223 112,93.0009558 C112,90.2385777 114.236666,88 117.000956,88 C119.761422,88 122,90.2385777 122,93.0009558" id="Fill-31" fill="#EEEDEB"></path>
                <path d="M97.4991274,134 C96.6701571,134 96,133.238436 96,132.298844 C96.0191972,129.262477 96.0401396,126.230067 96.061082,123.195679 C97.0401396,122.463786 98.0209424,121.731893 99,121 L99,132.298844 C99,133.238436 98.3298429,134 97.4991274,134" id="Fill-33" fill="#B3BC5D"></path>
                <path d="M92.5008726,133 L92.5008726,133 C91.6701571,133 91,132.264916 91,131.359905 L91,125 L94,125 L94,131.359905 C94,132.264916 93.3298429,133 92.5008726,133" id="Fill-35" fill="#B3BC5D"></path>
                <path d="M45,29.0085724 C45,29.0085724 33.0852696,29.3554035 30.2925126,17.5959006 C27.503629,5.83832443 34.8186382,0 34.8186382,0 C34.8186382,0 15.0330586,9.08697624 15.0001342,23.1143696 C14.9613998,39.220823 23.3125567,44.3828267 29.8780535,46.7990837 C36.445487,49.2172676 45,29.0085724 45,29.0085724" id="Fill-37" fill="#F4B01E"></path>
                <path d="M27.1030407,46 C27.1030407,46 26.8262778,44.5303327 27.1799193,42.37182 C27.2567978,41.8297456 27.3721157,41.2485323 27.5316387,40.6438356 C27.7084595,40.0489237 27.8641386,39.3972603 28.1255257,38.7690802 C28.3869129,38.1389432 28.6444561,37.4794521 28.97119,36.8375734 C29.296002,36.1956947 29.6669411,35.5694716 30.0590219,34.9510763 C30.4453367,34.332681 30.916218,33.7729941 31.3486599,33.2015656 C31.7657262,32.6164384 32.3096421,32.1526419 32.7786014,31.6634051 C33.2360289,31.1604697 33.7857107,30.7808219 34.2700457,30.3953033 C34.740927,29.9921722 35.2483256,29.6927593 35.7192069,29.4227006 C36.6225301,28.8375734 37.4739603,28.518591 38.0640034,28.3052838 C38.6617343,28.109589 39,28 39,28 C39,28 38.7770521,28.2857143 38.3888153,28.7866928 C37.9813589,29.2700587 37.4163014,29.9452055 36.7705214,30.7123288 C36.4495533,31.111546 36.0824581,31.5107632 35.7326606,31.9726027 C35.3943949,32.444227 34.9830945,32.8767123 34.6198433,33.3835616 C34.2508261,33.8845401 33.8702772,34.3953033 33.4839623,34.9158513 C33.1130232,35.444227 32.7036448,35.9589041 32.3730669,36.5303327 C31.99444,37.0704501 31.6311887,37.6203523 31.3121426,38.1878669 C30.9412035,38.7240705 30.6356112,39.2896282 30.3242529,39.8297456 C30.0205826,40.3679061 29.7169122,40.9080235 29.4382274,41.409002 C29.1710743,41.9138943 28.9077652,42.4109589 28.6694416,42.8630137 C27.7738063,44.6594912 27.1030407,46 27.1030407,46" id="Fill-39" fill="#C6770F"></path>
                <path d="M19.2242889,39 C19.2242889,39 18.7769364,37.5545723 19.145806,35.3480826 C19.2419476,34.8033432 19.3537857,34.2055064 19.5598033,33.6017699 C19.7697451,33.0019666 19.9620282,32.3431662 20.3034288,31.7315634 C20.5938155,31.0924287 20.9881921,30.4886922 21.3707963,29.8574238 C21.7906798,29.2536873 22.2772738,28.6853491 22.7462091,28.1052114 C23.2877411,27.5939036 23.8018041,27.0530973 24.3590327,26.5850541 C24.9260716,26.1288102 25.4989968,25.6941986 26.0856565,25.3343166 C26.6742782,24.9764012 27.2609379,24.6617502 27.8201286,24.380531 C28.3871675,24.1189774 28.9483203,23.9164208 29.4623833,23.7394297 C30.4650023,23.3303835 31.3950247,23.2399213 32.0111155,23.1199607 C32.6409407,23.0452311 33,23 33,23 C33,23 32.7253098,23.2379548 32.2446021,23.6588004 C31.7697805,24.0737463 31.0418516,24.5516224 30.2589847,25.2222222 C29.8665702,25.560472 29.4231418,25.8849558 28.967941,26.2330383 C28.5402092,26.626352 28.0850084,27.0176991 27.5964523,27.3952802 C27.1255549,27.7944936 26.6978231,28.26647 26.1994567,28.6696165 C25.7226731,29.0943953 25.2969033,29.5840708 24.8358163,30.0383481 C24.4120086,30.5201573 23.9646561,30.9921337 23.5800899,31.4955752 C23.1857133,31.9911504 22.7677919,32.4650934 22.4499361,32.9803343 C22.1026493,33.4818092 21.7612487,33.9675516 21.470862,34.4513274 C21.1902856,34.9429695 20.8998989,35.4031465 20.6664122,35.847591 C19.7246174,37.6214356 19.2242889,39 19.2242889,39" id="Fill-41" fill="#C6770F"></path>
                <path d="M15,25 C15,25 15.4762132,23.8897101 16.7174277,22.6857579 C17.0253407,22.381355 17.3676787,22.0632931 17.7597418,21.7686468 C18.1556299,21.4759517 18.5687306,21.1481333 19.0372938,20.886659 C19.509682,20.6349413 19.9897203,20.3461489 20.5118336,20.1217493 C21.0301219,19.8973498 21.5713603,19.6983172 22.1240736,19.5324567 C22.6748745,19.3626935 23.2448004,19.2670798 23.8013388,19.1597583 C24.3521396,19.0231673 24.920153,19.0485342 25.4556538,19.0173134 C25.9892422,18.962677 26.5151805,19.0504855 27.0028688,19.099268 C27.4924695,19.1246349 27.9495577,19.235859 28.3664834,19.3548883 C29.2041597,19.5324567 29.8620607,19.8544212 30.3095864,20.0846746 C30.7475496,20.3324898 31,20.4749347 31,20.4749347 C31,20.4749347 30.7188621,20.5432302 30.2292613,20.6603082 C29.733923,20.7539706 29.056897,20.8827564 28.3014583,21.0252014 C27.9036577,21.1013021 27.4924695,21.1793541 27.0678939,21.2613087 C26.6375807,21.3783867 26.1843175,21.419364 25.7234043,21.5403446 C25.2644035,21.6476661 24.7901028,21.7588903 24.3158021,21.8701144 C23.8376763,21.9871924 23.349988,22.0847574 22.8775998,22.2545205 C22.391824,22.3676959 21.9136983,22.5120922 21.4489601,22.6818553 C20.9650968,22.7950307 20.5099211,22.9765016 20.0585704,23.1248004 C19.6148697,23.2809045 19.1654315,23.4389598 18.7504184,23.5853073 C18.3430552,23.7375087 17.9318671,23.8897101 17.562754,24.0263012 C16.1283768,24.5707139 15,25 15,25" id="Fill-43" fill="#C6770F"></path>
                <path d="M17,15.8641603 C17,15.8641603 17.5762866,15.0517592 18.7545165,14.3565906 C19.046607,14.1817701 19.3663276,13.9904959 19.72552,13.8444694 C20.0807651,13.6963862 20.4577198,13.5215657 20.8623045,13.4166734 C21.2708365,13.3220646 21.69121,13.1945485 22.1273721,13.1225636 C22.5655078,13.0649757 23.0115379,13.0176713 23.4615151,13.0012176 C23.9114923,12.9929908 24.359496,13.0279549 24.8015789,13.0608622 C25.2456353,13.0711458 25.6739031,13.2027754 26.0844087,13.2973841 C26.4968878,13.3714257 26.8837103,13.5380194 27.2429027,13.6881593 C27.6080158,13.8197889 27.9376044,13.9966661 28.2277213,14.1879403 C28.8276909,14.5149574 29.2658266,14.9180729 29.5579171,15.2142394 C29.8401397,15.5206895 30,15.6975667 30,15.6975667 C30,15.6975667 29.7690906,15.7325308 29.3625323,15.7901187 C28.9540003,15.8189127 28.3974495,15.8538768 27.8093214,15.895011 C27.4856536,15.9052946 27.1600121,15.9155781 26.82845,15.9279184 C26.4850463,15.9587691 26.1337483,15.9402587 25.7686352,15.9525989 C25.4015485,15.9567124 25.0265675,15.9628825 24.6555336,15.9669959 C24.278579,15.9608258 23.8957037,15.9505422 23.5128283,15.9813929 C23.1279794,15.9649392 22.745104,15.9731661 22.3681494,15.9916765 C21.9833004,15.9649392 21.610293,15.9916765 21.2412327,15.9896197 C20.8800668,16.0204704 20.5110065,15.9711093 20.1676029,15.987563 C19.8281463,16.0040167 19.4886898,15.9711093 19.1788371,15.9752228 C17.9453469,15.9546557 17,15.8641603 17,15.8641603" id="Fill-45" fill="#C6770F"></path>
                <path d="M23,7.91934371 C23,7.91934371 23.1285714,7.28675966 23.7305195,6.77204842 C23.8766234,6.64238834 24.0461039,6.50487006 24.2428571,6.40467818 C24.4396104,6.32020267 24.65,6.17482621 24.8857143,6.13553528 C25.1194805,6.07856343 25.3649351,6.02944976 25.6220779,6.0019461 C25.8772727,5.99212337 26.1324675,6.02159157 26.3915584,6.04320158 C26.6467532,6.0942798 26.8902597,6.1826844 27.1337662,6.25340808 C27.3714286,6.33591905 27.5818182,6.4852246 27.7805195,6.61292013 C27.9772727,6.74454476 28.1467532,6.90760214 28.2928571,7.07458861 C28.4448052,7.22389417 28.5558442,7.4105261 28.6474026,7.58537076 C28.8558442,7.90362733 28.9220779,8.26117484 28.9668831,8.50084954 C28.9863636,8.75624061 29,8.90358162 29,8.90358162 C29,8.90358162 28.8538961,8.92126254 28.5987013,8.95269528 C28.361039,8.97823439 28.0551948,8.98412803 27.7376623,8.99395076 C27.5701299,9.00966714 27.4162338,8.99002167 27.2564935,8.98805712 C27.0909091,8.99787986 26.9331169,8.99198622 26.7850649,8.96055347 C26.6272727,8.95858892 26.4733766,8.96055347 26.3331169,8.9153689 C26.188961,8.89572343 26.0428571,8.85643249 25.8987013,8.84857431 C25.7564935,8.81321247 25.6162338,8.7640988 25.4720779,8.75034697 C25.3279221,8.69141057 25.1818182,8.65211963 25.0357143,8.61675779 C24.8935065,8.58925414 24.7415584,8.51263682 24.5915584,8.46941679 C24.4474026,8.44387768 24.2915584,8.35940217 24.1474026,8.31814669 C23.6,8.12758566 23,7.91934371 23,7.91934371" id="Fill-47" fill="#C6770F"></path>
                <path d="M128.450141,27.4699671 C128.450141,27.4699671 141.36303,26.5785863 142.925057,19.7786791 C144.483208,12.9806972 140.909538,6.68905032 136.120742,1 C136.120742,1 153.36312,4.52509345 157.211987,21.5402632 C161.056977,38.5573583 150.241004,44.72194 137.583931,49.4406752 C124.928797,54.1594103 128.450141,27.4699671 128.450141,27.4699671" id="Fill-49" fill="#F4B01E"></path>
                <path d="M134,26 C134,26 135.576846,26.1959763 137.661916,27.2767565 C138.177869,27.5464665 138.74793,27.8375204 139.296734,28.223652 C139.864863,28.5864992 140.440721,29.0114379 141.008849,29.4829453 C141.557653,29.9777369 142.127714,30.4919322 142.668789,31.0565768 C143.169283,31.6600286 143.71229,32.2440768 144.154812,32.9135008 C144.614725,33.5693423 145.028261,34.2562296 145.378027,34.9664011 C145.783833,35.6474673 146.023451,36.3964461 146.265003,37.108558 C146.550999,37.8032067 146.668876,38.5289011 146.784821,39.2060866 C146.941346,39.8696895 146.991589,40.5158292 146.978062,41.1173407 C147.061155,42.30096 146.891103,43.2827819 146.753902,43.9560866 C146.603174,44.6216299 146.520081,45 146.520081,45 C146.520081,45 146.394474,44.6313317 146.178044,43.9832516 C145.994465,43.3409926 145.739387,42.4445466 145.350973,41.4180964 C145.178988,40.9039011 144.985748,40.3547794 144.724872,39.7959559 C144.471727,39.235192 144.257229,38.6375613 143.936449,38.0573938 C143.638858,37.4675245 143.33547,36.8679534 142.976042,36.2800245 C142.655262,35.6688113 142.278442,35.0847631 141.855244,34.5220588 C141.501613,33.918607 141.037835,33.3869485 140.620435,32.8320057 C140.204967,32.2751225 139.752783,31.7570466 139.312193,31.2525531 C138.838753,30.7849265 138.448406,30.2474469 137.992358,29.8263889 C137.557566,29.3839869 137.149827,28.9512868 136.751751,28.5690359 C135.172973,27.0303309 134,26 134,26" id="Fill-51" fill="#C6770F"></path>
                <path d="M141,22.0836871 C141,22.0836871 142.411061,21.8268606 144.464746,22.2130377 C144.971876,22.3198925 145.53901,22.4098756 146.102273,22.6048388 C146.67715,22.7773062 147.281061,22.9722694 147.879165,23.2440932 C148.481141,23.4990451 149.073438,23.8346067 149.692834,24.1495473 C150.258032,24.5450977 150.875493,24.8937819 151.417464,25.3511956 C151.951693,25.8123586 152.491729,26.2641483 152.95434,26.7909239 C153.455664,27.2764573 153.860207,27.829478 154.206681,28.3918719 C154.603482,28.9186475 154.889952,29.4904146 155.114483,30.0490592 C155.381598,30.585208 155.577094,31.110109 155.673875,31.6275113 C155.973895,32.6154499 156.012607,33.4759126 155.997122,34.0739247 C155.977766,34.6625637 155.966152,35 155.966152,35 C155.966152,35 155.776462,34.7150538 155.441602,34.2220218 C155.149324,33.7233659 154.717683,33.0428693 154.162162,32.2817629 C153.908597,31.8899618 153.596963,31.4981607 153.258231,31.0932371 C152.933048,30.6826896 152.588509,30.2608942 152.191709,29.8559706 C151.825878,29.4266766 151.403915,29.0273769 150.970338,28.6224533 C150.571602,28.1894101 150.089634,27.8201047 149.621216,27.4376769 C149.183768,27.0252547 148.657281,26.7028155 148.186928,26.3316356 C147.68754,25.99045 147.211379,25.6248939 146.70812,25.3268252 C146.202925,25.036255 145.746121,24.6875708 145.264153,24.4326189 C144.801542,24.1607952 144.342802,23.8945954 143.92471,23.6508914 C142.23492,22.7079443 141,22.0836871 141,22.0836871" id="Fill-53" fill="#C6770F"></path>
                <path d="M144,16.1747573 C144,16.1747573 144.613021,15.4545455 145.884545,14.8773169 C146.200943,14.7360989 146.548981,14.5701677 146.938546,14.4660194 C147.324156,14.3442189 147.741406,14.2241836 148.182385,14.1518094 C148.625342,14.0882613 149.088074,14.0335393 149.564649,14 C150.045178,14.0105914 150.53164,13.9964695 151.020079,14.0582524 C151.506541,14.1182701 151.98707,14.2065313 152.45178,14.3336275 C152.930332,14.423654 153.359446,14.6248897 153.770764,14.8120035 C154.197901,14.9673433 154.559781,15.2162401 154.890021,15.4474846 C155.240037,15.6540159 155.522817,15.9046778 155.756161,16.1606355 C156.270307,16.619594 156.560998,17.1085613 156.740949,17.4527802 C156.905081,17.8005296 157,18 157,18 C157,18 156.764679,17.945278 156.351384,17.8464254 C155.965774,17.7352162 155.437785,17.5781112 154.830697,17.4245366 C154.530119,17.3415711 154.217676,17.2533098 153.879525,17.184466 C153.539398,17.1173875 153.211135,17.0167696 152.85321,16.9549868 C152.497262,16.8896734 152.131427,16.8225949 151.771524,16.7555163 C151.407667,16.6725508 151.031944,16.6231244 150.648312,16.5948808 C150.278521,16.5154457 149.888956,16.5083848 149.509279,16.4713151 C149.129601,16.4254192 148.745969,16.3989409 148.374201,16.3795234 C148.002434,16.3883495 147.630666,16.3142101 147.276696,16.3230362 C146.934591,16.3071492 146.578643,16.2912621 146.260268,16.2789056 C145.032248,16.2206531 144,16.1747573 144,16.1747573" id="Fill-55" fill="#C6770F"></path>
                <path d="M142,11 C142,11 142.073462,10.2449552 142.600551,9.40971124 C142.738292,9.21214769 142.874197,8.96568227 143.068871,8.77398695 C143.256198,8.57446733 143.443526,8.33191406 143.689624,8.15977948 C143.921028,7.96612808 144.187328,7.8018178 144.455464,7.61990285 C144.741965,7.48102155 145.041322,7.34800846 145.348026,7.23064398 C145.674931,7.16022529 145.985308,7.05655333 146.319559,7.03308043 C146.644628,6.98222249 146.969697,6.99200286 147.28742,7.04872903 C147.601469,7.07220193 147.900826,7.14653277 148.170799,7.27758977 C148.444444,7.37539351 148.692378,7.48884585 148.896235,7.6629365 C149.324151,7.93678696 149.601469,8.28496826 149.764922,8.5529505 C149.915519,8.82484489 150,8.98133087 150,8.98133087 C150,8.98133087 149.834711,9.01849629 149.5427,9.08500283 C149.274564,9.1260804 148.910927,9.20823554 148.530762,9.29234675 C148.330579,9.33929255 148.137741,9.38819442 147.944904,9.43318413 C147.73921,9.4899103 147.5427,9.54076825 147.346189,9.59162619 C147.146006,9.63074768 146.943985,9.7305075 146.734619,9.76376077 C146.527089,9.79114581 146.315886,9.8928617 146.102847,9.94958787 C145.886134,10.004358 145.667585,10.0708645 145.452709,10.1451953 C145.22865,10.2117019 145.000918,10.2566916 144.786042,10.3427589 C144.573003,10.422958 144.334252,10.4542551 144.124885,10.528586 C143.911846,10.5950925 143.695133,10.6439944 143.491276,10.6948523 C142.692378,10.9061084 142,11 142,11" id="Fill-57" fill="#C6770F"></path>
                <path d="M140.717819,7 C140.717819,7 140.181483,6.63769799 140.04527,5.88273347 C140.009089,5.69652238 139.981421,5.48197482 140.015474,5.26540323 C140.062297,5.0528797 140.072938,4.7877313 140.211279,4.57115971 C140.32408,4.34041989 140.477319,4.11372813 140.662483,3.8951325 C140.858289,3.69272914 141.103045,3.53080646 141.339289,3.36685974 C141.598944,3.26363402 141.864984,3.13004781 142.120383,3.07742294 C142.373653,3.01265386 142.648206,2.98229336 142.88445,3.01062983 C143.116436,3.02075 143.350552,3.0511105 143.552742,3.12802378 C143.750676,3.19076882 143.933712,3.27577823 144.093336,3.3769799 C144.41684,3.54497469 144.633929,3.81821922 144.782911,3.99431014 C144.921252,4.20076157 145,4.32017955 145,4.32017955 C145,4.32017955 144.893584,4.41935719 144.70842,4.59342408 C144.533898,4.75332273 144.293398,4.93143769 144.057154,5.10955264 C143.940096,5.21480239 143.820911,5.2998118 143.699596,5.36660491 C143.582539,5.45768642 143.486764,5.552816 143.373963,5.60341683 C143.256906,5.65604171 143.199441,5.76736355 143.097282,5.78557986 C142.995122,5.81594036 142.948299,5.88273347 142.867423,5.91714204 C142.799317,5.94952658 142.712056,5.96369481 142.650334,6.00822355 C142.560945,6.02036775 142.467299,6.04263212 142.382166,6.08513683 C142.299161,6.12156943 142.165077,6.15395397 142.056533,6.20455481 C141.962887,6.26729985 141.811776,6.30980455 141.698975,6.38064573 C141.220103,6.63972202 140.717819,7 140.717819,7" id="Fill-59" fill="#C6770F"></path>
                <path d="M87,122.361626 C88.611905,125.327199 92.7228569,126.653367 95.7763673,125.689251 C99.0477028,124.653944 101.835863,120.585943 100.76852,117" id="Fill-61" fill="#4E4450"></path>
                <path d="M84,124 C86.1619135,123.194764 87.4185833,121.243157 88,119" id="Fill-63" fill="#4E4450"></path>
                <path d="M98,116 C99.4072184,117.35 101.228217,117.758 103,117.252" id="Fill-65" fill="#4E4450"></path>
                <path d="M93.7304722,33.4107532 C95.2859909,39.732801 89.9500439,46.4653713 81.8137797,48.4473361 C73.6794335,50.429301 65.823201,46.9121726 64.2696004,40.5901249 C62.7140817,34.2661677 68.0481106,27.5355068 76.1843748,25.5535419 C84.320639,23.5696677 92.1749535,27.086796 93.7304722,33.4107532" id="Fill-67" fill="#DFE58A"></path>
                <path d="M59.88656,42.2974134 C60.4687574,44.6919126 58.7526069,47.1705635 56.0547119,47.8361272 C53.3568168,48.4978658 50.6969738,47.0959745 50.1128738,44.7033878 C49.5325791,42.3088886 51.2468269,39.8283252 53.944722,39.164674 C56.6426171,38.5010229 59.30246,39.9029142 59.88656,42.2974134" id="Fill-69" fill="#DFE58A"></path>
                <path d="M62.9653763,53.0992131 C63.1419452,53.8965004 62.6256731,54.7237931 61.8157591,54.9445474 C61.0058451,55.1674449 60.2074465,54.6980742 60.034716,53.9007869 C59.8581471,53.1034996 60.3725001,52.2762069 61.182414,52.0554526 C61.992328,51.8325551 62.7907266,52.3019258 62.9653763,53.0992131" id="Fill-71" fill="#DFE58A"></path>
            </g>
        </g>
    </g>
</svg>